<?xml version="1.0" encoding="UTF-8"?><svg xmlns="http://www.w3.org/2000/svg" xmlns:xlink="http://www.w3.org/1999/xlink" contentScriptType="text/ecmascript" width="375pt" zoomAndPan="magnify" contentStyleType="text/css" viewBox="0 0 375 374.999991" height="374.999991pt" preserveAspectRatio="xMidYMid meet" version="1.2"><defs><clipPath xml:id="clip1" id="clip1"><path d="M 89 45.160156 L 283 45.160156 L 283 330 L 89 330 Z M 89 45.160156 "/></clipPath></defs><g xml:id="surface1" id="surface1"><path style=" stroke:none;fill-rule:nonzero;fill:rgb(0%,50.19989%,21.569824%);fill-opacity:1;" d="M 187.5 0 C 84.113281 0 0 84.113281 0 187.5 C 0 290.886719 84.113281 375 187.5 375 C 290.886719 375 375 290.886719 375 187.5 C 375 84.113281 290.886719 0 187.5 0 Z M 187.5 0 "/><path style=" stroke:none;fill-rule:nonzero;fill:rgb(100%,100%,52.159119%);fill-opacity:1;" d="M 263.964844 181.503906 C 244.503906 154.230469 210.753906 151.144531 210.753906 151.144531 L 209.152344 115.601562 C 219.378906 124.484375 218.882812 141.886719 218.882812 141.886719 L 220.855469 144.355469 L 260.207031 136.238281 L 269.511719 123.128906 C 270.128906 104.496094 263.105469 87.339844 245.613281 73.519531 C 228.121094 59.699219 208.414062 59.453125 208.414062 59.453125 L 208.785156 46.742188 L 178.851562 47.480469 L 167.394531 54.761719 L 164.804688 66.855469 C 151.503906 66.734375 125.507812 78.457031 116.269531 90.921875 C 107.03125 103.386719 95.820312 124.734375 106.167969 157.191406 C 116.515625 189.644531 162.09375 202.109375 162.09375 202.109375 L 165.664062 248.261719 C 147.679688 239.996094 146.894531 217.5625 146.894531 217.5625 L 116.027344 219.5 L 91.015625 232.964844 C 88.675781 239.378906 94.589844 258.261719 112.449219 283.929688 C 130.3125 309.597656 167.515625 310.460938 167.515625 310.460938 L 167.761719 326.382812 L 195.601562 327 L 211.492188 314.78125 L 211.613281 310.460938 C 211.613281 310.460938 247.335938 295.652344 267.167969 268.503906 C 287.003906 241.355469 283.429688 208.773438 263.964844 181.503906 Z M 164.707031 142.527344 C 148.457031 133.121094 165.71875 109.257812 165.71875 109.257812 Z M 196.90625 251.644531 L 195.898438 215.742188 C 195.898438 215.742188 219.015625 222.316406 219.117188 232.328125 C 219.117188 232.328125 219.71875 247.597656 196.90625 251.644531 Z M 196.90625 251.644531 "/><path style=" stroke:none;fill-rule:nonzero;fill:rgb(0%,0%,0%);fill-opacity:1;" d="M 167.199219 107.84375 C 167.058594 106.550781 165.78125 106.179688 164.941406 106.65625 C 153.589844 107.320312 139.960938 115.371094 138.363281 127.527344 C 136.425781 142.269531 148.992188 151.796875 161.273438 156.597656 C 163.375 157.417969 164.277344 154.027344 162.203125 153.214844 C 157.625 151.425781 153.050781 148.957031 149.375 145.71875 C 150.644531 145.148438 151.804688 144.203125 152.964844 143.480469 C 154.777344 142.359375 156.578125 141.242188 158.324219 140.027344 C 158.664062 140.441406 159.0625 140.867188 159.507812 141.269531 C 158.246094 142.042969 157.039062 142.886719 155.855469 143.773438 C 154.769531 144.585938 153.125 145.460938 152.554688 146.726562 C 152.386719 147.109375 152.640625 147.578125 153.101562 147.476562 C 154.472656 147.175781 155.625 145.847656 156.71875 145.007812 C 157.910156 144.097656 159.144531 143.238281 160.421875 142.453125 C 160.542969 142.375 160.621094 142.28125 160.671875 142.179688 C 161.597656 142.78125 162.597656 143.164062 163.535156 143.0625 C 163.6875 147.988281 163.992188 152.859375 164.585938 157.558594 C 164.636719 158.039062 165.375 158.238281 165.492188 157.679688 C 168.730469 142.101562 168.925781 123.625 167.199219 107.84375 Z M 143.574219 122.316406 C 150.074219 119.128906 156.554688 115.050781 162.703125 111.265625 C 161.878906 112.21875 161.15625 113.324219 160.5 114.492188 C 154.285156 117.9375 147.121094 121.558594 141.996094 126.53125 C 142.320312 124.988281 142.855469 123.582031 143.574219 122.316406 Z M 143.855469 138.890625 C 143.382812 137.988281 142.972656 137.046875 142.636719 136.0625 C 147.414062 134.460938 151.851562 131.117188 156.242188 128.441406 C 156.191406 128.792969 156.140625 129.152344 156.105469 129.488281 C 156.0625 129.917969 156.027344 130.355469 156.003906 130.800781 C 151.859375 133.0625 147.207031 135.433594 143.898438 138.800781 C 143.871094 138.828125 143.871094 138.859375 143.855469 138.890625 Z M 146.078125 142.277344 C 145.332031 141.339844 144.660156 140.351562 144.082031 139.308594 C 144.132812 139.316406 144.1875 139.324219 144.246094 139.300781 C 148.398438 137.621094 152.128906 134.585938 155.976562 132.199219 C 155.988281 133.113281 156.0625 134.039062 156.210938 134.941406 C 154.488281 136.128906 152.746094 137.277344 150.988281 138.417969 C 149.359375 139.476562 147.1875 140.480469 146.113281 142.132812 C 146.082031 142.179688 146.082031 142.230469 146.078125 142.277344 Z M 152.722656 141.875 C 151.277344 142.722656 149.5 143.5 148.347656 144.765625 C 147.652344 144.089844 146.984375 143.386719 146.375 142.648438 C 146.433594 142.664062 146.492188 142.675781 146.554688 142.660156 C 148.230469 142.242188 149.691406 140.871094 151.09375 139.90625 C 152.890625 138.664062 154.691406 137.433594 156.464844 136.160156 C 156.710938 137.128906 157.070312 138.050781 157.550781 138.890625 C 155.96875 139.9375 154.351562 140.917969 152.722656 141.875 Z M 156.488281 126.742188 C 151.777344 129.246094 146.492188 131.746094 142.367188 135.09375 C 142.125 134.207031 141.921875 133.304688 141.804688 132.359375 C 141.828125 132.355469 141.847656 132.371094 141.878906 132.359375 C 144.863281 131.28125 147.535156 128.765625 150.109375 126.921875 C 152.582031 125.148438 155.097656 123.433594 157.605469 121.710938 C 157.121094 123.433594 156.765625 125.136719 156.488281 126.742188 Z M 157.953125 120.546875 C 155.039062 122.1875 152.179688 123.902344 149.363281 125.707031 C 146.804688 127.347656 143.605469 129.089844 141.695312 131.511719 C 141.636719 130.738281 141.613281 129.949219 141.648438 129.136719 C 141.675781 128.394531 141.765625 127.695312 141.886719 127.015625 C 141.980469 127.191406 142.171875 127.324219 142.371094 127.234375 C 148.457031 124.410156 154.160156 119.902344 159.710938 115.988281 C 159.019531 117.445312 158.4375 118.988281 157.953125 120.546875 Z M 163.425781 139.203125 C 162.703125 138.867188 161.929688 138.53125 161.210938 137.777344 C 158.546875 134.984375 159.070312 129.621094 159.378906 126.082031 C 159.800781 121.292969 161.449219 116.753906 164.011719 112.769531 C 163.648438 121.386719 163.300781 130.359375 163.425781 139.203125 Z M 164.132812 109.824219 C 163.953125 109.976562 163.785156 110.148438 163.613281 110.3125 C 163.535156 110.144531 163.359375 110.015625 163.148438 110.09375 C 157.433594 112.128906 151.503906 115.34375 146.203125 118.882812 C 150.8125 114.269531 158.089844 111.816406 164.132812 109.707031 C 164.132812 109.746094 164.132812 109.785156 164.132812 109.824219 Z M 164.132812 109.824219 "/><path style=" stroke:none;fill-rule:nonzero;fill:rgb(0%,0%,0%);fill-opacity:1;" d="M 226.179688 241.316406 C 224.496094 228.605469 210.335938 213.027344 196.59375 214.636719 C 196.53125 214.3125 196.492188 213.972656 196.425781 213.644531 C 196.230469 212.703125 194.734375 212.703125 194.539062 213.644531 C 192.371094 223.945312 193.886719 235.53125 194.085938 246 C 194.214844 252.695312 192.15625 263.957031 195.433594 270.003906 C 195.46875 270.074219 195.535156 270.097656 195.585938 270.144531 C 196.042969 270.890625 196.878906 271.417969 198.097656 271.210938 C 214.027344 268.5625 228.582031 259.457031 226.179688 241.316406 Z M 197.070312 246 C 197 236.359375 198.316406 225.941406 196.871094 216.300781 C 202.136719 219.363281 207.890625 220.796875 212.816406 224.832031 C 215.230469 226.804688 217.214844 229.183594 218.796875 231.8125 C 218.636719 231.878906 218.484375 232.003906 218.449219 232.175781 C 217.390625 236.957031 215.929688 240.886719 212.179688 244.222656 C 207.886719 248.042969 202.355469 248.859375 197.367188 251.160156 C 197.207031 249.304688 197.082031 247.546875 197.070312 246 Z M 197.742188 266.527344 C 198.398438 262.300781 197.90625 257.125 197.484375 252.441406 C 197.894531 252.488281 198.320312 252.503906 198.746094 252.507812 C 198.644531 252.65625 198.605469 252.851562 198.707031 253.066406 C 199.050781 253.777344 199.386719 254.488281 199.738281 255.195312 C 200.253906 256.214844 200.558594 257.347656 201.253906 258.265625 C 201.507812 258.589844 202.003906 258.394531 202.058594 258.019531 C 202.3125 256.082031 200.988281 253.910156 199.78125 252.480469 C 200.40625 252.441406 201.039062 252.371094 201.683594 252.261719 C 201.890625 253.542969 202.304688 254.816406 202.714844 256.007812 C 203.285156 257.664062 203.964844 259.683594 205.441406 260.726562 C 205.808594 260.984375 206.402344 260.816406 206.363281 260.289062 C 206.253906 258.703125 205.34375 257.234375 204.695312 255.800781 C 204.144531 254.554688 203.726562 253.21875 203.167969 251.964844 C 203.898438 251.785156 204.632812 251.574219 205.371094 251.3125 C 205.71875 252.839844 206.492188 254.332031 207.089844 255.730469 C 207.820312 257.429688 208.683594 259.28125 210.324219 260.238281 C 210.542969 260.363281 210.894531 260.164062 210.90625 259.914062 C 210.945312 258.089844 209.976562 256.378906 209.167969 254.789062 C 208.476562 253.445312 207.921875 251.929688 207.082031 250.644531 C 207.640625 250.402344 208.195312 250.144531 208.742188 249.859375 C 208.886719 250.164062 209.140625 250.460938 209.320312 250.734375 C 209.90625 251.640625 210.5 252.53125 211.125 253.410156 C 212.417969 255.234375 213.542969 257.554688 215.371094 258.875 C 215.753906 259.152344 216.171875 258.714844 216.117188 258.332031 C 215.847656 256.488281 214.429688 254.925781 213.402344 253.445312 C 212.363281 251.945312 211.289062 250.488281 210.109375 249.097656 C 210.839844 248.664062 211.546875 248.191406 212.226562 247.6875 C 212.898438 249.191406 213.878906 250.585938 214.847656 251.886719 C 216.011719 253.4375 217.390625 255.65625 219.273438 256.417969 C 214.523438 262.503906 205.988281 266.03125 197.742188 266.527344 Z M 220.082031 255.304688 C 219.488281 253.964844 218.25 252.859375 217.351562 251.75 C 216.03125 250.121094 214.902344 248.257812 213.53125 246.65625 C 214.101562 246.171875 214.644531 245.667969 215.15625 245.144531 C 215.785156 246.015625 216.488281 246.851562 217.167969 247.675781 C 218.269531 249.015625 219.40625 251.074219 221.066406 251.75 C 221.320312 251.855469 221.617188 251.703125 221.609375 251.40625 C 221.59375 249.882812 220.417969 248.804688 219.496094 247.699219 C 218.445312 246.445312 217.328125 245.203125 216.140625 244.0625 C 216.742188 243.355469 217.277344 242.613281 217.746094 241.851562 C 218.277344 242.492188 218.796875 243.136719 219.324219 243.773438 C 219.957031 244.53125 220.609375 245.5625 221.644531 245.75 C 221.902344 245.796875 222.167969 245.550781 222.125 245.285156 C 221.964844 244.292969 221.058594 243.5625 220.421875 242.839844 C 219.773438 242.09375 219.097656 241.390625 218.386719 240.707031 C 219.570312 238.375 220.097656 235.855469 219.613281 233.28125 C 220.753906 235.425781 221.644531 237.699219 222.277344 240.046875 C 223.914062 246.089844 222.824219 251.214844 220.082031 255.304688 Z M 220.082031 255.304688 "/><g clip-rule="nonzero" clip-path="url(#clip1)"><path style=" stroke:none;fill-rule:nonzero;fill:rgb(0%,0%,0%);fill-opacity:1;" d="M 282.203125 225.109375 C 281.910156 217.15625 280.273438 209.0625 277.167969 200.984375 C 269.84375 181.949219 253.703125 164.019531 234.261719 155.527344 C 234.328125 155.203125 234.054688 154.828125 233.691406 155.011719 C 233.605469 155.058594 233.519531 155.117188 233.4375 155.167969 C 226.738281 152.347656 219.667969 150.644531 212.433594 150.410156 C 212.269531 150.40625 212.136719 150.449219 212.015625 150.507812 C 211.773438 150.34375 211.464844 150.285156 211.121094 150.410156 C 211.757812 146.476562 211.398438 142.289062 211.191406 138.292969 C 211.257812 138.230469 211.332031 138.175781 211.398438 138.113281 C 211.824219 137.753906 211.554688 137.105469 211.121094 136.96875 C 211.121094 136.941406 211.121094 136.917969 211.113281 136.890625 C 211.078125 135.867188 211.035156 134.839844 211 133.808594 C 211.191406 133.550781 211.140625 133.207031 210.964844 132.972656 C 210.914062 131.582031 210.855469 130.199219 210.796875 128.808594 C 210.855469 128.742188 210.917969 128.6875 210.976562 128.621094 C 211.269531 128.3125 211.066406 127.894531 210.75 127.71875 C 210.632812 124.949219 210.511719 122.179688 210.332031 119.421875 C 215.296875 125.59375 217.777344 133.402344 217.507812 142.976562 C 217.46875 144.289062 218.613281 144.835938 219.628906 144.660156 C 219.761719 145.078125 220.078125 145.441406 220.628906 145.433594 C 233.152344 145.226562 248.511719 141.964844 259.960938 136.832031 C 260.191406 136.726562 260.261719 136.46875 260.207031 136.238281 C 261.136719 136.808594 262.566406 136.4375 262.542969 135.019531 C 262.539062 134.722656 262.511719 134.429688 262.503906 134.128906 C 264.226562 132.019531 265.902344 129.832031 267.539062 127.667969 C 269.375 125.234375 271.742188 122.847656 272.867188 119.996094 C 273.148438 119.277344 272.160156 118.953125 271.699219 119.332031 C 271.4375 119.550781 271.179688 119.78125 270.933594 120.023438 C 273.644531 105.371094 264.367188 88.988281 254.886719 78.847656 C 244.136719 67.339844 225.507812 56.734375 209.136719 58.75 C 209.34375 54.761719 209.753906 50.597656 209.234375 46.664062 C 209.214844 46.519531 209.15625 46.417969 209.082031 46.335938 C 209.136719 46.304688 209.195312 46.269531 209.246094 46.238281 C 209.726562 45.96875 209.441406 45.191406 208.917969 45.429688 C 208.28125 45.71875 207.652344 46.011719 207.023438 46.304688 C 206.964844 46.261719 206.917969 46.207031 206.835938 46.191406 C 202.90625 45.589844 198.59375 46.175781 194.617188 46.234375 C 189.609375 46.304688 184.519531 46.328125 179.5625 47.109375 C 179.488281 47.125 179.429688 47.148438 179.375 47.175781 C 179.367188 47.152344 179.375 47.125 179.367188 47.097656 C 178.808594 45.355469 174.15625 48.9375 173.324219 49.429688 C 172.027344 50.191406 170.710938 50.90625 169.410156 51.65625 C 168.910156 51.949219 168.417969 52.238281 167.914062 52.515625 C 167.71875 52.621094 167.523438 52.722656 167.332031 52.832031 C 167.222656 52.898438 167.136719 52.972656 167.09375 53.035156 L 167 53.082031 C 166.496094 53.210938 166.394531 53.710938 166.589844 54.046875 C 166.558594 54.058594 166.527344 54.0625 166.5 54.074219 C 166.492188 54.0625 166.492188 54.046875 166.484375 54.039062 C 166.4375 53.984375 166.34375 53.980469 166.296875 54.011719 C 166.195312 54.082031 166.140625 54.183594 166.042969 54.253906 C 165.394531 54.492188 164.714844 54.683594 164.117188 55.027344 C 163.75 55.25 163.816406 55.863281 164.246094 55.96875 C 164.371094 55.996094 164.503906 55.996094 164.632812 56.023438 C 164.023438 57.28125 163.8125 58.746094 163.640625 60.230469 C 163.476562 61.699219 163.140625 63.914062 163.261719 65.914062 C 128.3125 69.71875 101.574219 94.894531 99.214844 130.632812 C 96.605469 170.421875 127.351562 194.511719 161.6875 203.507812 C 161.011719 213.140625 163.316406 223.636719 163.550781 233.296875 C 163.652344 237.390625 163.621094 241.507812 163.589844 245.628906 C 160.078125 243.285156 157.121094 241.214844 154.425781 237.675781 C 154.308594 237.195312 154.03125 236.78125 153.59375 236.519531 C 150.3125 231.691406 148.980469 226.34375 148.242188 220.746094 C 148.375 220.597656 148.515625 220.449219 148.648438 220.300781 C 148.914062 220 148.53125 219.453125 148.167969 219.648438 C 148.140625 219.660156 148.121094 219.671875 148.105469 219.683594 C 148.023438 219.027344 147.945312 218.375 147.878906 217.710938 C 147.828125 217.203125 147.011719 216.949219 146.894531 217.5625 C 146.722656 218.566406 146.652344 219.574219 146.632812 220.582031 C 144.667969 221.871094 142.90625 223.433594 141.058594 224.902344 C 139.386719 226.230469 137.679688 227.515625 136.007812 228.839844 C 135.8125 227.980469 135.621094 227.121094 135.433594 226.253906 C 137.308594 224.671875 139.28125 223.242188 141.3125 221.875 C 142.863281 220.832031 145.09375 219.871094 146.304688 218.417969 C 146.890625 217.710938 146.117188 216.027344 145.175781 216.683594 C 145.019531 216.792969 144.863281 216.898438 144.699219 217.007812 C 141.3125 215.4375 133.515625 217.398438 130.441406 217.664062 C 126.199219 218.027344 119.875 217.464844 116.027344 219.5 C 115.972656 219.527344 115.957031 219.597656 116.011719 219.640625 C 118.757812 221.914062 126.003906 220.171875 129.238281 219.960938 C 132.835938 219.726562 136.4375 219.503906 140.039062 219.394531 C 140.398438 219.382812 140.761719 219.398438 141.121094 219.417969 C 138.910156 220.898438 136.726562 222.4375 134.851562 224.292969 C 134.21875 223.585938 132.8125 224.089844 132.71875 225.175781 C 132.6875 225.460938 132.691406 225.742188 132.671875 226.027344 C 132.507812 225.796875 132.277344 225.601562 131.957031 225.570312 C 125.878906 224.984375 119.238281 227.445312 113.230469 228.519531 C 107.96875 229.460938 102.667969 230.257812 97.375 231.035156 C 99.980469 229.796875 102.585938 228.5625 105.195312 227.328125 C 108.621094 225.703125 112.761719 224.078125 115.390625 221.246094 C 116.195312 220.375 115.179688 219.054688 114.132812 219.617188 C 110.703125 221.457031 107.476562 223.546875 103.945312 225.242188 C 99.644531 227.308594 95.136719 229.175781 91.222656 231.933594 C 91.207031 231.941406 91.203125 231.957031 91.1875 231.96875 C 89.914062 232.261719 90.246094 234.453125 91.59375 234.367188 C 98.230469 233.945312 104.738281 233.101562 111.3125 232.085938 C 118.027344 231.050781 126.5 230.757812 132.433594 227.300781 C 132.527344 227.242188 132.558594 227.152344 132.621094 227.078125 C 131.652344 247.464844 145.859375 265.445312 164.511719 272.191406 C 166.109375 272.765625 167.078125 271.308594 166.902344 269.984375 C 166.960938 269.839844 167.074219 269.761719 167.101562 269.585938 C 168.550781 257.625 168.257812 245.324219 167.941406 233.296875 C 167.710938 224.40625 168.351562 211.949219 163.957031 203.558594 C 165.160156 202.816406 165.308594 200.660156 163.550781 200.183594 C 130.472656 191.210938 104.597656 171.855469 103.085938 134.804688 C 101.609375 98.40625 130.722656 74.277344 163.601562 67.910156 C 163.828125 68.640625 164.183594 69.269531 164.726562 69.714844 C 165.46875 70.324219 166.335938 70.199219 166.914062 69.433594 C 168.367188 67.464844 167.417969 63.585938 167.550781 61.1875 C 167.640625 59.570312 167.78125 57.929688 167.480469 56.40625 C 170.703125 56.539062 174.117188 55.980469 177.246094 56 C 181.972656 56.03125 186.847656 57.035156 191.515625 56.707031 C 191.789062 56.691406 191.996094 56.5625 192.175781 56.429688 C 191.996094 57.25 191.929688 58.089844 191.875 58.894531 C 191.621094 59.144531 191.34375 59.390625 191.097656 59.648438 C 190.847656 59.914062 191.136719 60.335938 191.46875 60.171875 C 191.578125 60.117188 191.683594 60.054688 191.789062 59.996094 C 191.65625 62.007812 191.429688 64.136719 191.710938 66.121094 C 191.757812 66.472656 191.933594 66.726562 192.15625 66.941406 C 190.910156 66.832031 190.636719 68.917969 191.878906 69.160156 C 228.6875 76.394531 255.796875 95.609375 259.453125 135.019531 C 259.480469 135.339844 259.597656 135.585938 259.746094 135.800781 C 259.714844 135.796875 259.699219 135.773438 259.667969 135.777344 C 254.097656 136.382812 248.621094 137.898438 243.109375 138.925781 C 235.792969 140.285156 228.269531 140.996094 221.09375 143.015625 C 221.09375 143 221.105469 142.988281 221.105469 142.976562 C 221.191406 131.371094 217.199219 119.917969 208.785156 113.269531 C 208.765625 112.875 208.371094 112.527344 207.953125 112.65625 C 207.707031 112.476562 207.472656 112.285156 207.214844 112.109375 C 207.386719 111.757812 207.105469 111.246094 206.597656 111.351562 C 206.460938 111.382812 206.324219 111.421875 206.183594 111.449219 C 203.085938 109.5625 199.496094 108.257812 195.394531 107.71875 C 195.34375 107.441406 195.304688 107.152344 195.25 106.878906 C 194.984375 105.507812 193.175781 106.019531 193.027344 107.179688 C 190.664062 125.792969 192.265625 146.816406 193.78125 165.511719 C 193.851562 166.292969 194.285156 166.777344 194.808594 167.003906 C 195.019531 167.179688 195.285156 167.324219 195.628906 167.402344 C 228.351562 174.832031 257.222656 195.847656 267.34375 228.886719 C 281.609375 275.46875 233.867188 303.460938 195.332031 309.03125 C 193.664062 309.269531 193.011719 310.820312 193.15625 312.296875 C 192.769531 314.148438 192.726562 315.910156 192.695312 317.90625 C 192.652344 320.476562 192.472656 323.136719 192.679688 325.714844 C 189.6875 323.710938 185.234375 324.160156 181.746094 323.933594 C 178.109375 323.695312 173.582031 323.257812 169.621094 323.9375 C 169.921875 323.019531 169.796875 321.816406 169.8125 320.9375 C 169.84375 319.238281 169.78125 317.558594 169.699219 315.859375 C 169.605469 313.820312 170.066406 310.6875 168.671875 309.039062 C 168.210938 308.496094 167.175781 308.496094 166.714844 309.039062 C 166.707031 309.046875 166.707031 309.050781 166.707031 309.058594 C 166.394531 308.488281 165.855469 308.027344 165.046875 307.960938 C 143.730469 306.203125 125.710938 298.089844 112.503906 280.933594 C 106.773438 273.484375 102.660156 264.71875 99.15625 256.058594 C 96.25 248.835938 95.164062 240.609375 90.453125 234.351562 C 90.363281 234.226562 90.101562 234.199219 90.070312 234.402344 C 87.703125 251.175781 101.089844 273.695312 111.058594 286.441406 C 124.226562 303.300781 144.367188 310.535156 165.046875 312.085938 C 165.308594 312.105469 165.542969 312.058594 165.761719 311.996094 C 165.648438 313.332031 165.734375 314.753906 165.6875 315.859375 C 165.597656 317.558594 165.539062 319.238281 165.578125 320.9375 C 165.597656 322.027344 165.347656 323.648438 166.042969 324.554688 C 166.148438 324.695312 166.273438 324.753906 166.390625 324.859375 C 166.035156 325.003906 165.679688 325.132812 165.339844 325.3125 C 164.742188 325.632812 164.972656 326.417969 165.515625 326.628906 C 169.773438 328.28125 175.210938 327.511719 179.769531 327.867188 C 184.09375 328.207031 189.421875 330.226562 193.40625 328.238281 C 193.449219 328.214844 193.441406 328.15625 193.476562 328.132812 C 194.605469 329.117188 196.582031 328.640625 196.902344 326.710938 C 201.496094 324.140625 205.304688 320.015625 209.796875 317.238281 C 211.324219 316.296875 209.898438 313.90625 208.371094 314.851562 C 204.554688 317.203125 200.445312 320.058594 197.082031 323.304688 C 197.074219 322.320312 197.039062 321.335938 197.007812 320.355469 C 197.027344 320.410156 197.042969 320.460938 197.082031 320.5 C 197.191406 320.597656 197.171875 321.046875 197.363281 321.234375 C 197.398438 321.265625 197.460938 321.226562 197.445312 321.179688 C 196.824219 319.8125 204.769531 315.34375 209.960938 312.390625 C 210.050781 312.367188 210.144531 312.347656 210.234375 312.324219 C 210.230469 312.488281 210.226562 312.652344 210.226562 312.816406 C 210.207031 314.363281 212.632812 314.414062 212.617188 312.871094 C 212.613281 312.476562 212.605469 312.089844 212.585938 311.703125 C 233.695312 305.804688 252.652344 294.054688 263.570312 276.617188 C 275.949219 261.871094 282.632812 244.445312 282.246094 226.234375 C 282.28125 226.203125 282.308594 226.171875 282.34375 226.140625 C 282.714844 225.800781 282.535156 225.265625 282.203125 225.109375 Z M 136.308594 230.144531 C 140.089844 228.472656 143.695312 225.472656 146.664062 222.425781 C 146.722656 223.257812 146.835938 224.089844 146.976562 224.917969 C 145.203125 226.113281 143.46875 227.359375 141.828125 228.742188 C 140.285156 230.035156 138.1875 231.488281 137.09375 233.273438 C 136.820312 232.242188 136.558594 231.199219 136.308594 230.144531 Z M 160.726562 263.84375 C 161.851562 262.882812 162.507812 261.558594 163.375 260.375 C 163.476562 260.234375 163.597656 260.101562 163.699219 259.960938 C 163.792969 262.558594 163.9375 265.152344 164.183594 267.734375 C 148.433594 261.394531 141.507812 249.171875 137.40625 234.367188 C 139.226562 233.5 140.710938 231.609375 142.1875 230.253906 C 143.816406 228.753906 145.464844 227.265625 147.132812 225.804688 C 147.335938 226.8125 147.609375 227.808594 147.914062 228.796875 C 147.765625 228.773438 147.601562 228.800781 147.46875 228.921875 C 146.339844 229.9375 145.160156 230.898438 143.96875 231.835938 C 142.964844 232.625 141.707031 233.308594 140.992188 234.386719 C 140.851562 234.601562 141.050781 234.941406 141.3125 234.914062 C 142.757812 234.769531 144.046875 233.636719 145.160156 232.773438 C 146.285156 231.902344 147.28125 230.90625 148.25 229.867188 C 148.816406 231.558594 149.484375 233.214844 150.214844 234.804688 C 150.496094 235.414062 150.835938 236.078125 151.195312 236.753906 C 150.371094 236.761719 149.566406 236.789062 148.734375 236.949219 C 148.273438 237.042969 148.234375 237.699219 148.722656 237.785156 C 149.359375 237.902344 149.96875 237.945312 150.585938 237.96875 C 150.542969 238.222656 150.527344 238.472656 150.566406 238.722656 C 149.648438 239.359375 148.925781 240.28125 149.183594 241.300781 C 149.269531 241.644531 149.753906 241.796875 150.035156 241.589844 C 150.566406 241.183594 150.878906 240.527344 151.34375 240.03125 C 151.640625 240.234375 152.011719 240.363281 152.46875 240.363281 C 152.78125 240.363281 153.050781 240.304688 153.289062 240.207031 C 153.449219 240.449219 153.589844 240.691406 153.765625 240.929688 C 152.089844 242.175781 150.429688 243.738281 149.246094 245.433594 C 148.859375 245.980469 149.515625 246.6875 150.074219 246.28125 C 151.71875 245.097656 153.238281 243.515625 154.476562 241.871094 C 154.703125 242.171875 154.917969 242.480469 155.15625 242.769531 C 154.570312 243.488281 154.027344 244.25 153.46875 244.984375 C 152.246094 246.59375 150.953125 248.109375 149.648438 249.652344 C 149.230469 250.148438 149.925781 250.910156 150.464844 250.59375 C 152.804688 249.25 154.96875 246.625 156.292969 244.070312 C 156.734375 244.535156 157.179688 244.992188 157.648438 245.410156 C 157.433594 245.75 157.191406 246.066406 157.046875 246.261719 C 156.09375 247.542969 154.976562 248.726562 153.90625 249.914062 C 152.164062 251.859375 150.265625 253.667969 148.796875 255.84375 C 148.46875 256.34375 149.210938 256.875 149.617188 256.46875 C 152.457031 253.640625 155.320312 250.859375 157.699219 247.601562 C 157.984375 247.207031 158.308594 246.703125 158.566406 246.191406 C 159.445312 246.878906 160.367188 247.449219 161.316406 247.894531 C 157.9375 251.199219 155.539062 255.765625 153.007812 259.59375 C 152.683594 260.085938 153.429688 260.640625 153.816406 260.214844 C 157.136719 256.59375 159.589844 252.292969 162.53125 248.363281 C 162.875 248.46875 163.21875 248.574219 163.566406 248.636719 C 163.566406 249.492188 163.566406 250.347656 163.566406 251.203125 C 162.789062 252.269531 162.019531 253.355469 161.273438 254.449219 C 159.835938 256.554688 157.933594 258.6875 157.265625 261.183594 C 157.179688 261.527344 157.632812 261.792969 157.898438 261.585938 C 159.679688 260.195312 160.746094 258.074219 161.957031 256.199219 C 162.503906 255.359375 163.039062 254.511719 163.566406 253.667969 C 163.574219 255.046875 163.601562 256.425781 163.636719 257.804688 C 163.15625 258.328125 162.683594 258.847656 162.242188 259.40625 C 161.246094 260.667969 160.257812 261.957031 160.113281 263.597656 C 160.082031 263.945312 160.515625 264.019531 160.726562 263.84375 Z M 268.019531 119.054688 C 267.441406 119.527344 266.859375 119.992188 266.28125 120.476562 C 264.90625 121.644531 263.429688 122.75 262.410156 124.253906 C 262.105469 124.707031 262.664062 125.117188 263.082031 124.953125 C 264.386719 124.4375 265.378906 123.574219 266.453125 122.683594 C 267.097656 122.148438 267.703125 121.585938 268.296875 121.015625 C 268.394531 121.601562 268.492188 122.1875 268.605469 122.777344 C 267.6875 124.03125 266.835938 125.34375 265.953125 126.53125 C 264.714844 128.183594 263.496094 129.925781 262.394531 131.722656 C 262.179688 128.269531 261.71875 124.941406 261.039062 121.746094 C 262.261719 121.121094 263.371094 120.039062 264.371094 119.199219 C 265.515625 118.234375 266.609375 117.214844 267.6875 116.171875 C 267.785156 117.132812 267.894531 118.09375 268.019531 119.054688 Z M 267.539062 114.757812 C 266.398438 115.816406 265.230469 116.847656 264.023438 117.835938 C 263.003906 118.660156 261.726562 119.410156 260.707031 120.332031 C 260.488281 119.398438 260.25 118.484375 259.996094 117.578125 C 262.601562 115.859375 264.957031 113.679688 267.1875 111.480469 C 267.308594 112.570312 267.425781 113.664062 267.539062 114.757812 Z M 207.953125 46.992188 C 207.875 47.542969 207.816406 48.109375 207.746094 48.660156 C 203.625 50.675781 199.230469 52.980469 195.421875 55.839844 C 195.371094 55.371094 195.285156 54.914062 195.148438 54.46875 C 199.515625 52.523438 203.703125 49.507812 207.953125 46.992188 Z M 195.433594 63.308594 C 195.433594 62.878906 195.433594 62.449219 195.429688 62.019531 C 199.835938 59.773438 204.214844 56.316406 207.378906 52.621094 C 207.3125 53.613281 207.261719 54.605469 207.234375 55.59375 C 203.242188 57.917969 199.097656 60.40625 195.433594 63.308594 Z M 207.210938 56.515625 C 207.199219 57.34375 207.183594 58.167969 207.199219 58.980469 C 206.105469 58.863281 205.335938 59.5 204.441406 60.0625 C 203.1875 60.859375 201.921875 61.632812 200.648438 62.402344 C 199.460938 63.125 198.269531 63.835938 197.074219 64.546875 C 196.535156 64.863281 195.691406 65.175781 195.324219 65.738281 C 195.34375 65.554688 195.34375 65.371094 195.359375 65.195312 C 199.582031 62.8125 203.738281 59.847656 207.210938 56.515625 Z M 200.855469 56.476562 C 199.066406 57.800781 197.199219 59.050781 195.429688 60.40625 C 195.429688 60.355469 195.421875 60.300781 195.429688 60.253906 C 195.441406 59.480469 195.488281 58.675781 195.496094 57.867188 C 199.707031 55.21875 203.691406 52.023438 207.683594 49.175781 C 207.589844 50.023438 207.507812 50.867188 207.433594 51.722656 C 205.152344 53.179688 203.039062 54.867188 200.855469 56.476562 Z M 193.574219 53.5625 C 193.136719 54 192.832031 54.542969 192.59375 55.128906 C 192.488281 54.78125 192.277344 54.449219 191.84375 54.28125 C 187.421875 52.554688 181.933594 52.847656 177.246094 52.964844 C 175.097656 53.019531 172.675781 53.023438 170.316406 53.296875 C 171.636719 52.632812 172.921875 51.796875 174.085938 51.136719 C 174.851562 50.699219 178.167969 49.300781 179.136719 47.988281 C 179.234375 48.171875 179.429688 48.308594 179.699219 48.300781 C 184.644531 48.109375 189.570312 47.910156 194.519531 47.871094 C 197.5 47.847656 200.765625 48.152344 203.84375 47.863281 C 202.648438 48.480469 201.460938 49.117188 200.289062 49.808594 C 198.300781 50.980469 196.078125 52.070312 194.96875 53.984375 C 194.9375 53.898438 194.914062 53.8125 194.871094 53.730469 C 194.652344 53.238281 193.929688 53.21875 193.574219 53.5625 Z M 194.390625 67.246094 C 194.734375 67.085938 195.03125 66.835938 195.179688 66.480469 C 195.242188 66.683594 195.390625 66.847656 195.613281 66.929688 C 196.234375 67.15625 196.757812 66.753906 197.289062 66.457031 C 198.589844 65.71875 199.882812 64.964844 201.171875 64.207031 C 202.5 63.429688 203.8125 62.644531 205.125 61.851562 C 205.980469 61.328125 206.929688 60.894531 207.410156 60.042969 C 207.75 60.417969 208.445312 60.429688 208.824219 60.089844 C 215.492188 61.382812 221.957031 62.234375 228.359375 64.792969 C 236.308594 67.964844 243.414062 72.722656 249.765625 78.414062 C 253.070312 81.371094 255.957031 84.742188 258.464844 88.394531 C 258.421875 88.414062 258.382812 88.421875 258.339844 88.457031 C 257.125 89.359375 255.875 90.214844 254.605469 91.046875 C 253.429688 91.824219 252.050781 92.640625 251.347656 93.902344 C 251.21875 94.128906 251.410156 94.464844 251.691406 94.386719 C 253.085938 93.996094 254.230469 92.964844 255.378906 92.132812 C 256.589844 91.253906 257.78125 90.347656 258.933594 89.386719 C 258.972656 89.351562 259 89.304688 259.027344 89.261719 C 259.695312 90.273438 260.355469 91.289062 260.964844 92.339844 C 259.628906 93.140625 258.265625 93.875 256.914062 94.648438 C 255.453125 95.492188 253.851562 96.230469 252.785156 97.574219 C 252.59375 97.820312 252.75 98.242188 253.105469 98.148438 C 254.730469 97.707031 256.113281 96.6875 257.550781 95.835938 C 258.898438 95.03125 260.207031 94.171875 261.484375 93.257812 C 261.800781 93.824219 262.121094 94.394531 262.417969 94.96875 C 260.9375 96.5 259.382812 97.933594 257.65625 99.203125 C 256.246094 100.234375 254.601562 101.050781 253.328125 102.238281 C 241.421875 82.480469 219.222656 70.425781 194.390625 67.246094 Z M 253.652344 102.777344 C 257.210938 102.007812 260.414062 98.546875 262.78125 95.6875 C 263.171875 96.460938 263.554688 97.238281 263.910156 98.027344 C 262.730469 99.101562 261.527344 100.160156 260.304688 101.199219 C 258.710938 102.558594 256.765625 103.820312 255.519531 105.523438 C 255.304688 105.8125 255.582031 106.359375 255.964844 106.160156 C 257.878906 105.164062 259.484375 103.390625 261.046875 101.929688 C 262.140625 100.914062 263.191406 99.847656 264.234375 98.78125 C 264.6875 99.851562 265.082031 100.925781 265.410156 102.003906 C 264.507812 102.777344 263.605469 103.554688 262.683594 104.316406 C 260.90625 105.789062 258.882812 107.054688 257.246094 108.683594 C 256.851562 109.085938 257.390625 109.859375 257.90625 109.605469 C 260.808594 108.132812 263.421875 105.605469 265.722656 103.121094 C 265.996094 104.167969 266.246094 105.21875 266.4375 106.277344 C 265.179688 107.457031 263.886719 108.601562 262.542969 109.683594 C 261.246094 110.730469 259.695312 111.695312 258.4375 112.867188 C 257.132812 109.3125 255.519531 105.949219 253.652344 102.777344 Z M 258.875 114.042969 C 260.472656 113.152344 261.929688 111.796875 263.28125 110.648438 C 264.476562 109.636719 265.597656 108.574219 266.644531 107.4375 C 266.796875 108.363281 266.925781 109.289062 267.042969 110.21875 C 264.699219 112.507812 262.054688 114.496094 259.773438 116.835938 C 259.492188 115.890625 259.195312 114.960938 258.875 114.042969 Z M 203.851562 314.191406 C 201.957031 315.382812 197.597656 317.46875 196.988281 319.921875 C 196.984375 319.605469 196.96875 319.289062 196.96875 318.972656 C 196.941406 317.597656 196.941406 316.285156 196.851562 314.988281 C 199.542969 314.613281 202.207031 314.132812 204.855469 313.574219 C 204.515625 313.78125 204.183594 313.984375 203.851562 314.191406 Z M 209.621094 146.773438 C 207.109375 148.289062 204.789062 150.183594 202.441406 151.933594 C 200.882812 153.09375 199.199219 154.238281 197.753906 155.59375 C 197.78125 154.90625 197.824219 154.230469 197.847656 153.539062 C 199.480469 152.371094 201.007812 150.878906 202.511719 149.753906 C 204.890625 147.976562 207.5 146.21875 209.523438 144.015625 C 209.535156 144.9375 209.582031 145.855469 209.621094 146.773438 Z M 197.867188 130.308594 C 199.6875 129.246094 201.351562 127.605469 202.925781 126.34375 C 204.960938 124.714844 206.960938 123.027344 208.851562 121.226562 C 208.851562 122.210938 208.875 123.191406 208.90625 124.171875 C 206.589844 126.019531 204.148438 127.707031 201.75 129.453125 C 200.554688 130.328125 199.125 131.203125 197.929688 132.257812 C 197.90625 131.609375 197.898438 130.957031 197.867188 130.308594 Z M 209.492188 142.476562 C 209.265625 142.320312 208.972656 142.289062 208.660156 142.492188 C 205.875 144.367188 203.222656 146.519531 200.53125 148.53125 C 199.746094 149.121094 198.824219 149.734375 197.9375 150.40625 C 197.953125 149.753906 197.980469 149.105469 197.996094 148.449219 C 199.855469 147.273438 201.585938 145.816406 203.324219 144.535156 C 205.421875 142.988281 207.464844 141.367188 209.472656 139.703125 C 209.480469 140.628906 209.480469 141.550781 209.492188 142.476562 Z M 209.457031 137.808594 C 206.960938 139.386719 204.542969 141.058594 202.117188 142.746094 C 200.804688 143.660156 199.386719 144.609375 198.054688 145.644531 C 198.058594 145.167969 198.082031 144.699219 198.085938 144.222656 C 200.332031 142.878906 202.375 141.03125 204.398438 139.449219 C 206.105469 138.117188 207.773438 136.714844 209.398438 135.273438 C 209.425781 136.113281 209.441406 136.957031 209.457031 137.808594 Z M 209.3125 133.417969 C 207.25 134.851562 205.273438 136.421875 203.28125 137.941406 C 201.609375 139.214844 199.75 140.453125 198.074219 141.839844 C 198.074219 140.875 198.082031 139.914062 198.070312 138.949219 C 199.972656 138.046875 201.699219 136.535156 203.347656 135.328125 C 205.40625 133.816406 207.34375 132.214844 209.167969 130.460938 C 209.21875 131.449219 209.265625 132.433594 209.3125 133.417969 Z M 209.085938 128.621094 C 207.179688 130.246094 205.207031 131.777344 203.175781 133.242188 C 201.582031 134.386719 199.648438 135.421875 198.039062 136.714844 C 198.023438 136.015625 198.023438 135.320312 198.003906 134.621094 C 199.710938 133.628906 201.238281 132.117188 202.777344 130.960938 C 204.914062 129.359375 206.988281 127.726562 208.960938 125.945312 C 208.996094 126.839844 209.042969 127.730469 209.085938 128.621094 Z M 208.859375 117.703125 C 208.875 117.714844 208.890625 117.730469 208.90625 117.742188 C 208.875 118.429688 208.878906 119.121094 208.875 119.808594 C 208.851562 119.820312 208.832031 119.824219 208.8125 119.835938 C 206.5 121.574219 204.222656 123.355469 201.925781 125.101562 C 200.625 126.089844 199.039062 127.164062 197.757812 128.40625 C 197.710938 127.480469 197.660156 126.558594 197.59375 125.640625 C 198.824219 124.757812 199.996094 123.757812 201.160156 122.886719 C 203.644531 121.035156 206.207031 119.285156 208.859375 117.703125 Z M 196.203125 112.730469 C 195.984375 111.289062 195.777344 109.847656 195.519531 108.433594 C 196.898438 109.058594 198.21875 109.726562 199.46875 110.429688 C 198.335938 110.871094 197.363281 111.652344 196.492188 112.472656 C 196.402344 112.554688 196.300781 112.644531 196.203125 112.730469 Z M 196.550781 114.972656 C 196.960938 114.503906 197.34375 114.042969 197.695312 113.703125 C 198.292969 113.121094 198.871094 112.507812 199.511719 111.976562 C 199.675781 111.84375 199.851562 111.730469 200.039062 111.625 C 200.34375 111.457031 200.273438 111.011719 200.617188 111.4375 C 200.660156 111.488281 200.734375 111.457031 200.734375 111.390625 C 200.738281 111.296875 200.71875 111.226562 200.707031 111.164062 C 201.449219 111.609375 202.164062 112.078125 202.863281 112.5625 C 202.515625 112.726562 202.175781 112.90625 201.839844 113.105469 C 200.039062 114.199219 197.644531 115.699219 196.953125 117.800781 C 196.832031 118.179688 197.230469 118.566406 197.59375 118.378906 C 199 117.667969 200.085938 116.3125 201.316406 115.34375 C 202.199219 114.652344 203.175781 114.050781 204.183594 113.535156 C 204.621094 113.863281 205.023438 114.21875 205.441406 114.558594 C 204.09375 115.589844 202.730469 116.601562 201.355469 117.601562 C 200.011719 118.578125 198.496094 119.492188 197.203125 120.605469 C 197.015625 118.710938 196.800781 116.832031 196.550781 114.972656 Z M 197.363281 122.558594 C 199.1875 121.566406 200.777344 120.082031 202.417969 118.84375 C 203.839844 117.765625 205.222656 116.640625 206.574219 115.484375 C 207 115.859375 207.417969 116.246094 207.820312 116.632812 C 204.46875 118.40625 200.523438 120.542969 197.414062 123.203125 C 197.398438 122.988281 197.382812 122.773438 197.363281 122.558594 Z M 197.652344 157.75 C 199.820312 156.613281 201.761719 154.898438 203.691406 153.433594 C 205.722656 151.886719 207.863281 150.371094 209.746094 148.613281 C 209.808594 149.433594 209.859375 150.253906 209.972656 151.0625 C 207.054688 152.828125 204.359375 155.121094 201.675781 157.171875 C 200.378906 158.167969 198.878906 159.203125 197.527344 160.363281 C 197.582031 159.507812 197.609375 158.617188 197.652344 157.75 Z M 279.242188 232.511719 C 278.675781 233.164062 278.109375 233.8125 277.546875 234.457031 C 276.394531 235.777344 274.816406 236.886719 274.097656 238.515625 C 273.9375 238.886719 274.183594 239.390625 274.644531 239.261719 C 276.414062 238.785156 277.609375 237.3125 278.78125 235.984375 C 278.894531 235.851562 279 235.71875 279.105469 235.585938 L 279.105469 235.59375 C 279.03125 236.761719 278.902344 237.898438 278.761719 239.015625 C 278.054688 239.738281 277.351562 240.472656 276.675781 241.226562 C 275.613281 242.40625 274.429688 243.605469 273.914062 245.128906 C 273.746094 245.625 274.316406 246.214844 274.808594 245.917969 C 276.074219 245.140625 276.890625 243.945312 277.800781 242.796875 C 277.933594 242.625 278.082031 242.460938 278.21875 242.289062 C 277.636719 245.25 276.828125 248.035156 275.824219 250.707031 C 275.328125 251.320312 274.832031 251.933594 274.550781 252.671875 C 274.453125 252.929688 274.609375 253.136719 274.816406 253.226562 C 273.535156 256.222656 272.039062 259.089844 270.375 261.882812 C 272.570312 254.851562 273.621094 247.144531 273.296875 238.773438 C 271.785156 200.113281 232.644531 170.25 197.558594 163.8125 C 199.679688 162.464844 201.613281 160.605469 203.546875 159.144531 C 206.390625 156.992188 209.605469 155.125 212.210938 152.691406 C 212.402344 152.515625 212.511719 152.289062 212.566406 152.058594 C 213.574219 152.265625 214.558594 152.515625 215.550781 152.753906 C 211.351562 155.921875 207.523438 159.542969 203.074219 162.421875 C 202.464844 162.816406 203.101562 163.796875 203.734375 163.488281 C 208.785156 161.003906 213.554688 157.335938 217.417969 153.1875 C 218.46875 153.460938 219.488281 153.773438 220.519531 154.078125 C 218.597656 155.824219 216.804688 157.734375 214.859375 159.464844 C 212.558594 161.519531 210.046875 163.308594 207.835938 165.464844 C 207.558594 165.738281 207.933594 166.277344 208.28125 166.101562 C 213.253906 163.648438 218.699219 159.238281 221.53125 154.371094 C 222.886719 154.789062 224.226562 155.246094 225.550781 155.726562 C 223.582031 157.117188 221.789062 158.761719 220.003906 160.371094 C 217.757812 162.40625 215.175781 164.359375 213.449219 166.867188 C 213.175781 167.253906 213.59375 167.679688 213.992188 167.457031 C 216.4375 166.105469 218.332031 163.9375 220.34375 162.035156 C 222.425781 160.070312 224.617188 158.183594 226.617188 156.132812 C 227.71875 156.542969 228.792969 156.992188 229.863281 157.441406 C 228.226562 158.632812 226.664062 159.933594 225.140625 161.238281 C 222.40625 163.570312 219.367188 165.894531 217.148438 168.738281 C 216.898438 169.066406 217.277344 169.609375 217.664062 169.402344 C 220.882812 167.703125 223.519531 164.875 226.21875 162.476562 C 227.90625 160.980469 229.640625 159.542969 231.367188 158.105469 C 232.511719 158.613281 233.644531 159.148438 234.761719 159.707031 C 233.101562 161.078125 231.449219 162.445312 229.773438 163.78125 C 227.132812 165.882812 223.902344 167.964844 221.785156 170.609375 C 221.484375 170.984375 221.980469 171.492188 222.375 171.296875 C 224.882812 170.066406 226.988281 167.921875 229.113281 166.132812 C 231.375 164.234375 233.539062 162.222656 235.683594 160.191406 C 237.210938 160.980469 238.703125 161.828125 240.171875 162.707031 C 238.019531 164.359375 235.859375 166 233.695312 167.648438 C 231.558594 169.277344 229.171875 170.871094 227.453125 172.953125 C 227.199219 173.261719 227.554688 173.796875 227.933594 173.605469 C 230.128906 172.507812 231.960938 170.765625 233.875 169.25 C 236.332031 167.308594 238.722656 165.277344 241.121094 163.273438 C 242.128906 163.890625 243.109375 164.53125 244.078125 165.1875 C 242.367188 166.503906 240.65625 167.8125 238.957031 169.140625 C 236.71875 170.894531 233.824219 172.785156 232.542969 175.390625 C 232.382812 175.707031 232.75 176.105469 233.078125 175.949219 C 235.421875 174.824219 237.34375 172.640625 239.347656 170.984375 C 241.355469 169.332031 243.398438 167.746094 245.433594 166.132812 C 246.433594 166.839844 247.390625 167.597656 248.351562 168.34375 C 246.296875 170.054688 244.1875 171.699219 242.136719 173.425781 C 240.15625 175.097656 237.640625 176.804688 236.40625 179.132812 C 236.269531 179.390625 236.515625 179.726562 236.800781 179.578125 C 239.121094 178.367188 241.019531 176.121094 242.992188 174.40625 C 245.058594 172.613281 247.074219 170.761719 249.066406 168.890625 C 250.242188 169.820312 251.375 170.789062 252.492188 171.78125 C 252.382812 171.792969 252.273438 171.824219 252.175781 171.90625 C 248.519531 175.003906 244.480469 178.152344 241.417969 181.851562 C 241.132812 182.199219 241.621094 182.78125 242.007812 182.535156 C 246.078125 179.9375 249.40625 175.902344 252.945312 172.644531 C 253.054688 172.546875 253.09375 172.4375 253.101562 172.332031 C 261.476562 179.933594 268.3125 189.367188 273.140625 200.539062 C 276.132812 207.445312 278.023438 214.703125 278.828125 222.105469 C 277.992188 222.875 277.15625 223.644531 276.328125 224.425781 C 275.164062 225.527344 273.835938 226.503906 272.933594 227.851562 C 272.808594 228.046875 272.972656 228.328125 273.214844 228.230469 C 274.507812 227.722656 275.476562 226.765625 276.476562 225.832031 C 277.324219 225.03125 278.128906 224.191406 278.925781 223.339844 C 279.050781 224.636719 279.125 225.933594 279.183594 227.234375 C 278.597656 227.734375 278.023438 228.242188 277.472656 228.777344 C 276.226562 229.984375 273.738281 231.796875 273.691406 233.636719 C 273.679688 233.898438 273.945312 234.027344 274.167969 233.980469 C 275.578125 233.695312 276.507812 232.015625 277.429688 231.019531 C 278.023438 230.386719 278.632812 229.761719 279.246094 229.148438 C 279.273438 230.265625 279.265625 231.390625 279.242188 232.511719 Z M 279.242188 232.511719 "/></g><path style=" stroke:none;fill-rule:nonzero;fill:rgb(0%,0%,0%);fill-opacity:1;" d="M 256.023438 176.03125 C 252.472656 178.265625 249.320312 180.855469 246.503906 183.960938 C 245.9375 184.582031 246.75 185.527344 247.390625 184.945312 C 250.433594 182.195312 253.535156 179.484375 256.683594 176.859375 C 257.152344 176.46875 256.523438 175.71875 256.023438 176.03125 Z M 256.023438 176.03125 "/><path style=" stroke:none;fill-rule:nonzero;fill:rgb(0%,0%,0%);fill-opacity:1;" d="M 253.976562 87.257812 C 253.457031 87.996094 252.804688 88.582031 252.046875 89.074219 C 251.539062 89.394531 250.613281 89.550781 250.375 90.152344 C 250.304688 90.339844 250.335938 90.53125 250.515625 90.636719 C 251.179688 91.027344 252.074219 90.355469 252.636719 90.003906 C 253.539062 89.433594 254.277344 88.648438 254.878906 87.769531 C 255.25 87.214844 254.355469 86.722656 253.976562 87.257812 Z M 253.976562 87.257812 "/><path style=" stroke:none;fill-rule:nonzero;fill:rgb(0%,0%,0%);fill-opacity:1;" d="M 252.699219 83.875 C 251.894531 84.667969 251.039062 85.246094 250.078125 85.835938 C 249.785156 86.015625 249.929688 86.457031 250.28125 86.414062 C 250.933594 86.328125 251.417969 86.203125 251.960938 85.835938 C 252.476562 85.488281 252.914062 85.039062 253.351562 84.597656 C 253.785156 84.152344 253.144531 83.4375 252.699219 83.875 Z M 252.699219 83.875 "/></g></svg>